<mxfile host="app.diagrams.net" modified="2021-05-12T02:55:55.973Z" agent="5.0 (Macintosh; Intel Mac OS X 10_15_7) AppleWebKit/537.36 (KHTML, like Gecko) Chrome/89.0.4389.114 Safari/537.36" etag="bN1HDOZBe-NYD8IKKfmU" version="14.6.11" type="github">
  <diagram name="Page-1" id="12e1b939-464a-85fe-373e-61e167be1490">
    <mxGraphModel dx="1249" dy="811" grid="1" gridSize="10" guides="1" tooltips="1" connect="1" arrows="1" fold="1" page="1" pageScale="1.5" pageWidth="1169" pageHeight="826" background="#ffffff" math="0" shadow="0">
      <root>
        <mxCell id="0" />
        <mxCell id="1" parent="0" />
        <mxCell id="60da8b9f42644d3a-4" value="Blog&lt;div&gt;Keywords&lt;/div&gt;&lt;div&gt;Social Media&lt;/div&gt;" style="text;html=1;strokeColor=none;fillColor=none;align=center;verticalAlign=middle;whiteSpace=wrap;rounded=0;shadow=0;fontSize=14;fontColor=#FFFFFF;" parent="1" vertex="1">
          <mxGeometry x="316" y="725" width="280" height="90" as="geometry" />
        </mxCell>
        <mxCell id="60da8b9f42644d3a-6" value="" style="line;strokeWidth=2;html=1;rounded=0;shadow=0;fontSize=27;align=center;fillColor=none;strokeColor=#FFFFFF;" parent="1" vertex="1">
          <mxGeometry x="336" y="485" width="240" height="10" as="geometry" />
        </mxCell>
        <mxCell id="60da8b9f42644d3a-7" value="" style="line;strokeWidth=2;html=1;rounded=0;shadow=0;fontSize=27;align=center;fillColor=none;strokeColor=#FFFFFF;" parent="1" vertex="1">
          <mxGeometry x="336" y="705" width="240" height="10" as="geometry" />
        </mxCell>
        <mxCell id="60da8b9f42644d3a-18" value="CONVERT" style="text;html=1;strokeColor=none;fillColor=none;align=center;verticalAlign=middle;whiteSpace=wrap;rounded=0;shadow=0;fontSize=27;fontColor=#FFFFFF;fontStyle=1" parent="1" vertex="1">
          <mxGeometry x="596" y="425" width="280" height="60" as="geometry" />
        </mxCell>
        <mxCell id="60da8b9f42644d3a-19" value="Forms&lt;div&gt;Calls-to-Action&lt;/div&gt;&lt;div&gt;Landing Pages&lt;/div&gt;" style="text;html=1;strokeColor=none;fillColor=none;align=center;verticalAlign=middle;whiteSpace=wrap;rounded=0;shadow=0;fontSize=14;fontColor=#FFFFFF;" parent="1" vertex="1">
          <mxGeometry x="596" y="725" width="280" height="90" as="geometry" />
        </mxCell>
        <mxCell id="60da8b9f42644d3a-20" value="" style="line;strokeWidth=2;html=1;rounded=0;shadow=0;fontSize=27;align=center;fillColor=none;strokeColor=#FFFFFF;" parent="1" vertex="1">
          <mxGeometry x="616" y="485" width="240" height="10" as="geometry" />
        </mxCell>
        <mxCell id="60da8b9f42644d3a-21" value="" style="line;strokeWidth=2;html=1;rounded=0;shadow=0;fontSize=27;align=center;fillColor=none;strokeColor=#FFFFFF;" parent="1" vertex="1">
          <mxGeometry x="616" y="705" width="240" height="10" as="geometry" />
        </mxCell>
        <mxCell id="60da8b9f42644d3a-25" value="CLOSE" style="text;html=1;strokeColor=none;fillColor=none;align=center;verticalAlign=middle;whiteSpace=wrap;rounded=0;shadow=0;fontSize=27;fontColor=#FFFFFF;fontStyle=1" parent="1" vertex="1">
          <mxGeometry x="876" y="425" width="280" height="60" as="geometry" />
        </mxCell>
        <mxCell id="60da8b9f42644d3a-26" value="Email&lt;div&gt;Signals&lt;/div&gt;&lt;div&gt;Workflows&lt;/div&gt;" style="text;html=1;strokeColor=none;fillColor=none;align=center;verticalAlign=middle;whiteSpace=wrap;rounded=0;shadow=0;fontSize=14;fontColor=#FFFFFF;" parent="1" vertex="1">
          <mxGeometry x="876" y="725" width="280" height="90" as="geometry" />
        </mxCell>
        <mxCell id="60da8b9f42644d3a-27" value="" style="line;strokeWidth=2;html=1;rounded=0;shadow=0;fontSize=27;align=center;fillColor=none;strokeColor=#FFFFFF;" parent="1" vertex="1">
          <mxGeometry x="896" y="485" width="240" height="10" as="geometry" />
        </mxCell>
        <mxCell id="60da8b9f42644d3a-28" value="" style="line;strokeWidth=2;html=1;rounded=0;shadow=0;fontSize=27;align=center;fillColor=none;strokeColor=#FFFFFF;" parent="1" vertex="1">
          <mxGeometry x="896" y="705" width="240" height="10" as="geometry" />
        </mxCell>
        <mxCell id="60da8b9f42644d3a-32" value="DELIGHT" style="text;html=1;strokeColor=none;fillColor=none;align=center;verticalAlign=middle;whiteSpace=wrap;rounded=0;shadow=0;fontSize=27;fontColor=#FFFFFF;fontStyle=1" parent="1" vertex="1">
          <mxGeometry x="1156" y="425" width="280" height="60" as="geometry" />
        </mxCell>
        <mxCell id="60da8b9f42644d3a-34" value="" style="line;strokeWidth=2;html=1;rounded=0;shadow=0;fontSize=27;align=center;fillColor=none;strokeColor=#FFFFFF;" parent="1" vertex="1">
          <mxGeometry x="1176" y="485" width="240" height="10" as="geometry" />
        </mxCell>
        <mxCell id="60da8b9f42644d3a-35" value="" style="line;strokeWidth=2;html=1;rounded=0;shadow=0;fontSize=27;align=center;fillColor=none;strokeColor=#FFFFFF;" parent="1" vertex="1">
          <mxGeometry x="1176" y="705" width="240" height="10" as="geometry" />
        </mxCell>
        <mxCell id="-69QhgYu0o7bPw_on2T7-32" value="" style="edgeStyle=orthogonalEdgeStyle;rounded=0;orthogonalLoop=1;jettySize=auto;html=1;" edge="1" parent="1" source="-69QhgYu0o7bPw_on2T7-1" target="-69QhgYu0o7bPw_on2T7-7">
          <mxGeometry relative="1" as="geometry" />
        </mxCell>
        <mxCell id="-69QhgYu0o7bPw_on2T7-1" value="技术方案评审（大需求）" style="rounded=1;whiteSpace=wrap;html=1;fillColor=#dae8fc;strokeColor=#6c8ebf;" vertex="1" parent="1">
          <mxGeometry x="200" y="180" width="120" height="60" as="geometry" />
        </mxCell>
        <mxCell id="-69QhgYu0o7bPw_on2T7-44" value="" style="edgeStyle=orthogonalEdgeStyle;rounded=0;orthogonalLoop=1;jettySize=auto;html=1;" edge="1" parent="1" source="-69QhgYu0o7bPw_on2T7-3" target="-69QhgYu0o7bPw_on2T7-1">
          <mxGeometry relative="1" as="geometry" />
        </mxCell>
        <mxCell id="-69QhgYu0o7bPw_on2T7-3" value="PRD评审通过&lt;br&gt;（大需求）" style="shape=document;whiteSpace=wrap;html=1;boundedLbl=1;fillColor=#f5f5f5;strokeColor=#666666;fontColor=#333333;" vertex="1" parent="1">
          <mxGeometry x="200" y="61" width="120" height="67" as="geometry" />
        </mxCell>
        <mxCell id="-69QhgYu0o7bPw_on2T7-33" value="" style="edgeStyle=orthogonalEdgeStyle;rounded=0;orthogonalLoop=1;jettySize=auto;html=1;" edge="1" parent="1" source="-69QhgYu0o7bPw_on2T7-7" target="-69QhgYu0o7bPw_on2T7-8">
          <mxGeometry relative="1" as="geometry" />
        </mxCell>
        <mxCell id="-69QhgYu0o7bPw_on2T7-7" value="开发中-Mock开发" style="rounded=1;whiteSpace=wrap;html=1;fillColor=#dae8fc;strokeColor=#6c8ebf;" vertex="1" parent="1">
          <mxGeometry x="360" y="180" width="120" height="60" as="geometry" />
        </mxCell>
        <mxCell id="-69QhgYu0o7bPw_on2T7-34" value="" style="edgeStyle=orthogonalEdgeStyle;rounded=0;orthogonalLoop=1;jettySize=auto;html=1;" edge="1" parent="1" source="-69QhgYu0o7bPw_on2T7-8" target="-69QhgYu0o7bPw_on2T7-9">
          <mxGeometry relative="1" as="geometry" />
        </mxCell>
        <mxCell id="-69QhgYu0o7bPw_on2T7-8" value="开发中-UI开发" style="rounded=1;whiteSpace=wrap;html=1;fillColor=#dae8fc;strokeColor=#6c8ebf;" vertex="1" parent="1">
          <mxGeometry x="520" y="180" width="120" height="60" as="geometry" />
        </mxCell>
        <mxCell id="-69QhgYu0o7bPw_on2T7-35" value="" style="edgeStyle=orthogonalEdgeStyle;rounded=0;orthogonalLoop=1;jettySize=auto;html=1;" edge="1" parent="1" source="-69QhgYu0o7bPw_on2T7-9" target="-69QhgYu0o7bPw_on2T7-10">
          <mxGeometry relative="1" as="geometry" />
        </mxCell>
        <mxCell id="-69QhgYu0o7bPw_on2T7-9" value="开发中-联调" style="rounded=1;whiteSpace=wrap;html=1;fillColor=#dae8fc;strokeColor=#6c8ebf;" vertex="1" parent="1">
          <mxGeometry x="680" y="180" width="120" height="60" as="geometry" />
        </mxCell>
        <mxCell id="-69QhgYu0o7bPw_on2T7-36" value="" style="edgeStyle=orthogonalEdgeStyle;rounded=0;orthogonalLoop=1;jettySize=auto;html=1;" edge="1" parent="1" source="-69QhgYu0o7bPw_on2T7-10" target="-69QhgYu0o7bPw_on2T7-11">
          <mxGeometry relative="1" as="geometry" />
        </mxCell>
        <mxCell id="-69QhgYu0o7bPw_on2T7-10" value="冒烟自测" style="rounded=1;whiteSpace=wrap;html=1;fillColor=#dae8fc;strokeColor=#6c8ebf;" vertex="1" parent="1">
          <mxGeometry x="840" y="180" width="120" height="60" as="geometry" />
        </mxCell>
        <mxCell id="-69QhgYu0o7bPw_on2T7-37" value="" style="edgeStyle=orthogonalEdgeStyle;rounded=0;orthogonalLoop=1;jettySize=auto;html=1;" edge="1" parent="1" source="-69QhgYu0o7bPw_on2T7-11" target="-69QhgYu0o7bPw_on2T7-12">
          <mxGeometry relative="1" as="geometry" />
        </mxCell>
        <mxCell id="-69QhgYu0o7bPw_on2T7-11" value="代码Review-初评" style="rounded=1;whiteSpace=wrap;html=1;fillColor=#dae8fc;strokeColor=#6c8ebf;" vertex="1" parent="1">
          <mxGeometry x="1000" y="180" width="120" height="60" as="geometry" />
        </mxCell>
        <mxCell id="-69QhgYu0o7bPw_on2T7-38" value="" style="edgeStyle=orthogonalEdgeStyle;rounded=0;orthogonalLoop=1;jettySize=auto;html=1;" edge="1" parent="1" source="-69QhgYu0o7bPw_on2T7-12" target="-69QhgYu0o7bPw_on2T7-13">
          <mxGeometry relative="1" as="geometry" />
        </mxCell>
        <mxCell id="-69QhgYu0o7bPw_on2T7-12" value="提测-预发环境" style="rounded=1;whiteSpace=wrap;html=1;fillColor=#dae8fc;strokeColor=#6c8ebf;" vertex="1" parent="1">
          <mxGeometry x="1160" y="180" width="120" height="60" as="geometry" />
        </mxCell>
        <mxCell id="-69QhgYu0o7bPw_on2T7-39" value="" style="edgeStyle=orthogonalEdgeStyle;rounded=0;orthogonalLoop=1;jettySize=auto;html=1;" edge="1" parent="1" source="-69QhgYu0o7bPw_on2T7-13" target="-69QhgYu0o7bPw_on2T7-31">
          <mxGeometry relative="1" as="geometry" />
        </mxCell>
        <mxCell id="-69QhgYu0o7bPw_on2T7-58" value="" style="edgeStyle=orthogonalEdgeStyle;rounded=0;orthogonalLoop=1;jettySize=auto;html=1;" edge="1" parent="1" source="-69QhgYu0o7bPw_on2T7-13" target="-69QhgYu0o7bPw_on2T7-27">
          <mxGeometry relative="1" as="geometry" />
        </mxCell>
        <mxCell id="-69QhgYu0o7bPw_on2T7-13" value="提测后-改BUG" style="rounded=1;whiteSpace=wrap;html=1;fillColor=#dae8fc;strokeColor=#6c8ebf;" vertex="1" parent="1">
          <mxGeometry x="1320" y="180" width="120" height="60" as="geometry" />
        </mxCell>
        <mxCell id="-69QhgYu0o7bPw_on2T7-41" value="" style="edgeStyle=orthogonalEdgeStyle;rounded=0;orthogonalLoop=1;jettySize=auto;html=1;" edge="1" parent="1" source="-69QhgYu0o7bPw_on2T7-14" target="-69QhgYu0o7bPw_on2T7-15">
          <mxGeometry relative="1" as="geometry" />
        </mxCell>
        <mxCell id="-69QhgYu0o7bPw_on2T7-60" value="" style="edgeStyle=orthogonalEdgeStyle;rounded=0;orthogonalLoop=1;jettySize=auto;html=1;" edge="1" parent="1" source="-69QhgYu0o7bPw_on2T7-14" target="-69QhgYu0o7bPw_on2T7-23">
          <mxGeometry relative="1" as="geometry" />
        </mxCell>
        <mxCell id="-69QhgYu0o7bPw_on2T7-14" value="封板-正式回归包" style="rounded=1;whiteSpace=wrap;html=1;fillColor=#dae8fc;strokeColor=#6c8ebf;" vertex="1" parent="1">
          <mxGeometry x="1640" y="180" width="120" height="60" as="geometry" />
        </mxCell>
        <mxCell id="-69QhgYu0o7bPw_on2T7-42" value="" style="edgeStyle=orthogonalEdgeStyle;rounded=0;orthogonalLoop=1;jettySize=auto;html=1;" edge="1" parent="1" source="-69QhgYu0o7bPw_on2T7-15" target="-69QhgYu0o7bPw_on2T7-28">
          <mxGeometry relative="1" as="geometry" />
        </mxCell>
        <mxCell id="-69QhgYu0o7bPw_on2T7-59" value="" style="edgeStyle=orthogonalEdgeStyle;rounded=0;orthogonalLoop=1;jettySize=auto;html=1;" edge="1" parent="1" source="-69QhgYu0o7bPw_on2T7-15" target="-69QhgYu0o7bPw_on2T7-29">
          <mxGeometry relative="1" as="geometry" />
        </mxCell>
        <mxCell id="-69QhgYu0o7bPw_on2T7-15" value="APP-GP发版-灰度" style="rounded=1;whiteSpace=wrap;html=1;fillColor=#dae8fc;strokeColor=#6c8ebf;" vertex="1" parent="1">
          <mxGeometry x="1800" y="180" width="120" height="60" as="geometry" />
        </mxCell>
        <mxCell id="-69QhgYu0o7bPw_on2T7-45" value="" style="edgeStyle=orthogonalEdgeStyle;rounded=0;orthogonalLoop=1;jettySize=auto;html=1;" edge="1" parent="1" source="-69QhgYu0o7bPw_on2T7-17" target="-69QhgYu0o7bPw_on2T7-7">
          <mxGeometry relative="1" as="geometry" />
        </mxCell>
        <mxCell id="-69QhgYu0o7bPw_on2T7-17" value="明确接口定义" style="shape=document;whiteSpace=wrap;html=1;boundedLbl=1;fillColor=#f5f5f5;strokeColor=#666666;fontColor=#333333;" vertex="1" parent="1">
          <mxGeometry x="360" y="60" width="120" height="67" as="geometry" />
        </mxCell>
        <mxCell id="-69QhgYu0o7bPw_on2T7-46" value="" style="edgeStyle=orthogonalEdgeStyle;rounded=0;orthogonalLoop=1;jettySize=auto;html=1;" edge="1" parent="1" source="-69QhgYu0o7bPw_on2T7-18" target="-69QhgYu0o7bPw_on2T7-8">
          <mxGeometry relative="1" as="geometry" />
        </mxCell>
        <mxCell id="-69QhgYu0o7bPw_on2T7-18" value="UI评审通过" style="shape=document;whiteSpace=wrap;html=1;boundedLbl=1;fillColor=#f5f5f5;strokeColor=#666666;fontColor=#333333;" vertex="1" parent="1">
          <mxGeometry x="520" y="60" width="120" height="67" as="geometry" />
        </mxCell>
        <mxCell id="-69QhgYu0o7bPw_on2T7-47" value="" style="edgeStyle=orthogonalEdgeStyle;rounded=0;orthogonalLoop=1;jettySize=auto;html=1;" edge="1" parent="1" source="-69QhgYu0o7bPw_on2T7-19" target="-69QhgYu0o7bPw_on2T7-9">
          <mxGeometry relative="1" as="geometry" />
        </mxCell>
        <mxCell id="-69QhgYu0o7bPw_on2T7-19" value="接口环境完善" style="shape=document;whiteSpace=wrap;html=1;boundedLbl=1;fillColor=#f5f5f5;strokeColor=#666666;fontColor=#333333;" vertex="1" parent="1">
          <mxGeometry x="680" y="60" width="120" height="67" as="geometry" />
        </mxCell>
        <mxCell id="-69QhgYu0o7bPw_on2T7-48" value="" style="edgeStyle=orthogonalEdgeStyle;rounded=0;orthogonalLoop=1;jettySize=auto;html=1;" edge="1" parent="1" source="-69QhgYu0o7bPw_on2T7-20" target="-69QhgYu0o7bPw_on2T7-10">
          <mxGeometry relative="1" as="geometry" />
        </mxCell>
        <mxCell id="-69QhgYu0o7bPw_on2T7-20" value="测试用例评审完成" style="shape=document;whiteSpace=wrap;html=1;boundedLbl=1;fillColor=#f5f5f5;strokeColor=#666666;fontColor=#333333;" vertex="1" parent="1">
          <mxGeometry x="840" y="60" width="120" height="67" as="geometry" />
        </mxCell>
        <mxCell id="-69QhgYu0o7bPw_on2T7-22" value="提测邮件" style="shape=trapezoid;perimeter=trapezoidPerimeter;whiteSpace=wrap;html=1;fixedSize=1;fillColor=#b0e3e6;strokeColor=#0e8088;" vertex="1" parent="1">
          <mxGeometry x="1160" y="280" width="120" height="60" as="geometry" />
        </mxCell>
        <mxCell id="-69QhgYu0o7bPw_on2T7-23" value="发版前3天" style="shape=trapezoid;perimeter=trapezoidPerimeter;whiteSpace=wrap;html=1;fixedSize=1;fillColor=#b0e3e6;strokeColor=#0e8088;" vertex="1" parent="1">
          <mxGeometry x="1640" y="280" width="120" height="60" as="geometry" />
        </mxCell>
        <mxCell id="-69QhgYu0o7bPw_on2T7-61" value="" style="edgeStyle=orthogonalEdgeStyle;rounded=0;orthogonalLoop=1;jettySize=auto;html=1;" edge="1" parent="1" source="-69QhgYu0o7bPw_on2T7-25" target="-69QhgYu0o7bPw_on2T7-15">
          <mxGeometry relative="1" as="geometry" />
        </mxCell>
        <mxCell id="-69QhgYu0o7bPw_on2T7-25" value="UI走查通过报告&lt;br&gt;测试通过报告&lt;br&gt;产品走查通过报告" style="shape=document;whiteSpace=wrap;html=1;boundedLbl=1;fillColor=#f5f5f5;strokeColor=#666666;fontColor=#333333;align=center;" vertex="1" parent="1">
          <mxGeometry x="1800" y="70" width="120" height="67" as="geometry" />
        </mxCell>
        <mxCell id="-69QhgYu0o7bPw_on2T7-27" value="清理开发中产生&lt;br&gt;的崩溃" style="shape=trapezoid;perimeter=trapezoidPerimeter;whiteSpace=wrap;html=1;fixedSize=1;fillColor=#b0e3e6;strokeColor=#0e8088;" vertex="1" parent="1">
          <mxGeometry x="1320" y="280" width="120" height="60" as="geometry" />
        </mxCell>
        <mxCell id="-69QhgYu0o7bPw_on2T7-28" value="GP全量-发小米华为" style="rounded=1;whiteSpace=wrap;html=1;fillColor=#dae8fc;strokeColor=#6c8ebf;" vertex="1" parent="1">
          <mxGeometry x="1960" y="180" width="120" height="60" as="geometry" />
        </mxCell>
        <mxCell id="-69QhgYu0o7bPw_on2T7-29" value="一周左右" style="shape=trapezoid;perimeter=trapezoidPerimeter;whiteSpace=wrap;html=1;fixedSize=1;fillColor=#b0e3e6;strokeColor=#0e8088;" vertex="1" parent="1">
          <mxGeometry x="1800" y="280" width="120" height="60" as="geometry" />
        </mxCell>
        <mxCell id="-69QhgYu0o7bPw_on2T7-40" value="" style="edgeStyle=orthogonalEdgeStyle;rounded=0;orthogonalLoop=1;jettySize=auto;html=1;" edge="1" parent="1" source="-69QhgYu0o7bPw_on2T7-31" target="-69QhgYu0o7bPw_on2T7-14">
          <mxGeometry relative="1" as="geometry" />
        </mxCell>
        <mxCell id="-69QhgYu0o7bPw_on2T7-31" value="代码Review-复评" style="rounded=1;whiteSpace=wrap;html=1;fillColor=#dae8fc;strokeColor=#6c8ebf;" vertex="1" parent="1">
          <mxGeometry x="1480" y="180" width="120" height="60" as="geometry" />
        </mxCell>
        <mxCell id="-69QhgYu0o7bPw_on2T7-57" value="" style="edgeStyle=orthogonalEdgeStyle;orthogonalLoop=1;jettySize=auto;html=1;rounded=0;" edge="1" parent="1" source="-69QhgYu0o7bPw_on2T7-12" target="-69QhgYu0o7bPw_on2T7-22">
          <mxGeometry relative="1" as="geometry" />
        </mxCell>
      </root>
    </mxGraphModel>
  </diagram>
</mxfile>
